<!DOCTYPE svg PUBLIC "-//W3C//DTD SVG 20010904//EN" "http://www.w3.org/TR/2001/REC-SVG-20010904/DTD/svg10.dtd">
<svg version="1.0" xmlns="http://www.w3.org/2000/svg" width="1588px" height="589px" viewBox="0 0 12000 4450" preserveAspectRatio="xMidYMid meet">
<g id="layer101" fill="#400698" stroke="none">
 <path d="M0 2225 l0 -2225 6000 0 6000 0 0 2225 0 2225 -6000 0 -6000 0 0 -2225z"/>
 </g>
<g id="layer102" fill="#47119b" stroke="none">
 <path d="M0 2225 l0 -2225 6000 0 6000 0 0 2225 0 2225 -6000 0 -6000 0 0 -2225z m5552 1380 l3 -85 38 26 c34 23 46 25 99 21 64 -6 128 -43 128 -75 0 -9 7 -26 15 -36 8 -11 15 -36 15 -56 0 -44 -38 -121 -66 -135 -12 -6 -28 -16 -35 -21 -22 -18 -129 -11 -172 10 -64 32 -72 57 -75 259 l-4 177 26 0 c25 0 25 -1 28 -85z m1055 64 c71 -34 76 -50 76 -209 0 -155 -5 -171 -68 -210 -31 -19 -46 -21 -107 -18 -42 3 -74 10 -76 16 -2 7 -9 12 -16 12 -40 0 -82 97 -71 165 5 36 15 52 51 84 62 54 137 63 224 27 28 -12 17 40 -17 78 -30 35 -33 36 -93 33 -56 -3 -66 -7 -91 -35 -16 -18 -37 -32 -48 -32 -16 0 -18 5 -12 27 7 25 34 47 86 72 36 17 116 12 162 -10z m1389 -4 c3 -14 4 -52 2 -85 -4 -62 -5 -62 44 -28 20 13 41 18 83 16 31 -1 59 -6 62 -11 3 -4 16 -12 29 -17 29 -11 61 -62 70 -110 13 -64 -32 -170 -72 -170 -7 0 -14 -6 -16 -12 -3 -8 -29 -13 -74 -14 -75 -1 -112 15 -154 69 -20 26 -22 38 -20 199 0 94 3 175 6 180 11 17 34 7 40 -17z m-4501 -115 c20 -11 38 -20 40 -20 3 0 5 9 5 20 0 16 7 20 30 20 l30 0 0 -96 c0 -116 -27 -188 -83 -223 -47 -29 -146 -29 -193 0 -34 20 -84 109 -84 147 0 30 22 86 37 95 7 4 13 14 13 22 0 22 69 53 122 54 31 1 60 -6 83 -19z m435 5 c14 -8 35 -19 48 -24 25 -12 29 -33 7 -51 -12 -10 -20 -7 -45 14 -56 46 -132 46 -179 0 -19 -20 -26 -38 -29 -85 -4 -56 -2 -63 24 -90 16 -17 44 -37 62 -45 29 -12 38 -12 70 2 20 8 47 25 60 36 21 20 24 21 39 6 40 -41 -31 -88 -133 -88 -77 0 -127 23 -149 67 -6 11 -15 27 -21 34 -13 18 -12 119 1 139 6 8 15 24 20 35 28 53 166 84 225 50z m398 6 c9 -5 29 -14 44 -21 31 -15 42 -44 22 -61 -12 -10 -18 -8 -29 8 -21 30 -95 48 -139 33 -39 -13 -83 -58 -92 -97 -8 -31 11 -98 36 -123 10 -10 35 -23 56 -29 41 -11 92 4 130 40 18 17 26 19 43 10 12 -7 21 -15 21 -19 -1 -4 -21 -22 -45 -39 -39 -29 -51 -33 -110 -33 -82 0 -114 16 -155 77 -45 67 -45 124 1 185 18 24 47 51 63 59 34 18 127 24 154 10z m425 -16 c18 -11 42 -36 54 -54 50 -74 17 -208 -61 -245 -39 -18 -146 -22 -163 -5 -6 6 -21 16 -34 23 -23 12 -27 18 -54 83 -20 49 -15 98 15 136 11 14 20 30 20 36 0 6 6 11 13 11 6 0 23 9 37 20 35 27 130 25 173 -5z m217 -80 c0 -112 12 -155 49 -175 31 -16 69 -12 92 11 19 19 22 37 27 145 5 120 6 124 27 124 22 0 23 -4 26 -107 4 -93 8 -114 28 -147 23 -37 26 -38 68 -33 25 2 50 10 55 15 7 7 13 69 16 142 5 129 5 130 28 130 24 0 24 0 24 -121 0 -134 -8 -158 -64 -197 -18 -12 -44 -22 -59 -22 -32 0 -103 36 -117 59 -9 14 -10 13 -16 -6 -7 -25 -60 -53 -101 -53 -44 0 -91 31 -114 75 -18 32 -23 62 -27 153 l-4 112 31 0 31 0 0 -105z m1192 88 c21 -9 38 -21 38 -26 0 -4 5 -5 10 -2 6 3 10 15 10 26 0 14 7 19 26 19 l26 0 -4 -119 c-3 -131 -12 -154 -76 -197 -25 -17 -44 -21 -99 -19 -37 1 -72 3 -76 4 -15 2 -77 71 -77 85 0 8 -4 18 -10 21 -15 9 -12 96 5 129 15 28 49 60 90 83 30 17 93 15 137 -4z m678 -97 c0 -98 3 -117 20 -138 23 -30 65 -40 113 -27 42 11 47 29 47 175 l0 104 30 0 30 0 -1 -97 c0 -131 -21 -199 -69 -224 -67 -36 -160 -16 -203 43 -17 23 -21 48 -25 153 l-4 125 31 0 31 0 0 -114z m545 104 c3 -5 13 -10 21 -10 8 0 31 -16 51 -36 34 -34 35 -38 19 -50 -16 -11 -23 -10 -47 8 -15 12 -30 27 -33 34 -3 7 -21 16 -41 20 -63 12 -129 -32 -141 -94 l-6 -32 146 0 c168 0 167 1 116 -87 -39 -68 -76 -86 -166 -80 -64 4 -69 6 -105 45 -23 24 -36 47 -33 55 3 8 1 18 -5 22 -14 8 -14 82 -1 90 6 3 10 14 10 24 0 22 55 81 74 81 8 0 18 5 21 10 3 6 30 10 60 10 30 0 57 -4 60 -10z m228 -75 c10 -112 13 -127 22 -149 14 -33 45 -57 68 -54 18 2 22 -2 22 -22 0 -34 -46 -41 -72 -11 -9 12 -23 21 -30 21 -7 0 -13 6 -13 14 0 7 -7 19 -15 26 -8 7 -15 23 -15 36 0 12 -4 26 -10 29 -11 7 -14 178 -3 189 4 4 14 5 23 4 11 -2 17 -23 23 -83z m1007 65 c15 -11 32 -20 38 -20 5 0 12 -8 16 -17 3 -10 15 -34 26 -53 24 -42 25 -78 3 -122 -9 -18 -19 -39 -23 -47 -3 -8 -15 -19 -25 -25 -11 -6 -26 -17 -34 -25 -10 -9 -35 -12 -85 -9 -65 3 -74 7 -107 38 -20 19 -41 44 -46 55 -7 17 -10 85 -4 143 2 18 68 82 85 82 8 0 17 4 20 8 2 4 28 9 56 10 38 1 59 -3 80 -18z m405 -11 c24 -18 41 -37 39 -44 -3 -7 -1 -16 5 -20 7 -4 11 -52 11 -126 0 -118 0 -119 -24 -119 -23 0 -23 2 -28 122 l-5 122 -34 29 c-40 34 -80 31 -119 -8 -23 -24 -25 -33 -28 -145 l-4 -120 -25 0 -25 0 4 135 c3 130 4 136 29 157 40 36 58 44 111 46 42 2 57 -3 93 -29z m200 11 c4 -12 5 -61 4 -110 l-3 -90 34 -35 c19 -19 40 -34 48 -32 8 1 21 -8 29 -20 14 -21 13 -23 -12 -29 -16 -4 -37 -1 -52 7 -15 8 -35 18 -45 24 -38 20 -54 77 -57 194 l-2 111 25 0 c16 0 27 -7 31 -20z m364 -78 c-1 -116 11 -149 70 -187 22 -13 42 -29 46 -34 8 -13 -37 -25 -63 -17 -30 10 -81 62 -88 91 -3 14 -10 28 -15 31 -5 3 -9 52 -9 110 l0 104 30 0 30 0 -1 -98z m401 78 c14 -11 30 -20 36 -20 7 0 19 -11 27 -24 15 -22 15 -25 -2 -40 -21 -19 -31 -20 -31 -3 0 33 -90 73 -141 63 -16 -3 -38 -14 -49 -24 -22 -20 -43 -79 -34 -93 3 -5 68 -9 145 -9 138 0 139 0 139 -22 0 -13 -7 -34 -15 -48 -8 -14 -18 -33 -21 -42 -3 -10 -21 -27 -40 -39 -65 -40 -207 -15 -234 41 -30 61 -35 78 -34 115 1 56 40 122 84 145 50 25 138 25 170 0z m418 -1 c42 -26 64 -108 60 -224 l-3 -90 -28 -3 -28 -3 2 118 c3 134 -4 155 -60 171 -28 9 -42 8 -76 -7 -39 -17 -42 -22 -48 -66 -4 -26 -7 -85 -7 -131 0 -83 0 -84 -25 -84 l-25 0 0 116 c0 109 2 120 26 159 15 23 36 46 48 52 27 14 137 9 164 -8z m289 3 c12 -7 28 -30 34 -52 10 -34 10 -43 -4 -58 -10 -10 -17 -24 -17 -30 0 -6 -22 -21 -50 -34 -34 -15 -52 -31 -56 -47 -14 -50 35 -77 82 -46 26 17 44 13 44 -10 0 -23 -42 -45 -86 -45 -52 0 -74 8 -74 26 0 8 -4 14 -9 14 -5 0 -11 16 -13 35 -3 28 2 41 29 70 17 19 38 35 44 35 21 0 59 42 59 66 0 48 -76 66 -106 25 -10 -13 -14 -13 -28 -2 -23 19 -20 27 16 48 36 21 102 23 135 5z m252 -11 c16 -12 32 -34 36 -48 8 -35 -39 -102 -87 -122 -47 -20 -62 -50 -41 -80 12 -18 21 -21 46 -16 18 4 36 11 41 15 5 5 16 2 24 -7 15 -14 14 -17 -7 -34 -34 -27 -141 -25 -141 3 0 5 -7 16 -15 24 -8 9 -15 25 -15 38 0 25 62 93 109 118 38 21 42 59 9 82 -25 18 -67 11 -85 -13 -11 -15 -13 -14 -30 2 -17 17 -17 18 11 41 39 30 103 29 145 -3z m169 -138 l2 -163 -30 0 -30 0 0 166 0 165 28 -3 27 -3 3 -162z m115 77 c4 -47 9 -94 10 -105 9 -53 47 -98 80 -93 18 2 22 -2 22 -22 0 -19 -6 -26 -26 -28 -14 -2 -31 4 -39 12 -7 9 -18 16 -25 16 -37 0 -75 109 -75 216 0 84 4 97 30 92 11 -3 17 -24 23 -88z m-1306 -317 c4 -10 17 -29 30 -42 12 -13 20 -27 17 -32 -8 -14 -54 -11 -54 4 0 7 -13 27 -30 45 -16 18 -30 35 -30 38 0 2 14 4 30 4 20 0 33 -6 37 -17z m1187 -2 c22 -24 12 -49 -19 -46 -33 4 -45 13 -45 34 0 36 36 43 64 12z m-9395 -300 c12 -7 26 -9 31 -6 5 3 11 1 14 -4 3 -5 22 -12 42 -16 20 -3 44 -10 53 -14 109 -51 150 -75 155 -87 3 -8 10 -14 16 -14 17 0 167 -155 175 -182 5 -12 18 -36 31 -53 36 -48 35 -74 -4 -95 -19 -10 -42 -26 -51 -34 -10 -9 -31 -21 -47 -25 -16 -5 -37 -12 -47 -16 -14 -6 -21 2 -38 39 -11 25 -24 46 -29 46 -6 0 -10 7 -10 15 0 9 -7 18 -15 21 -8 4 -15 10 -15 15 0 12 -77 89 -89 89 -5 0 -19 11 -32 25 -13 13 -31 25 -40 25 -9 0 -22 7 -29 14 -6 8 -37 20 -68 27 -31 6 -62 15 -67 20 -18 14 -244 8 -274 -7 -14 -8 -35 -14 -46 -15 -11 0 -33 -9 -50 -20 -16 -10 -39 -23 -50 -28 -29 -13 -115 -95 -115 -109 0 -7 -4 -12 -10 -12 -5 0 -16 -15 -25 -32 -8 -18 -26 -52 -40 -76 -14 -24 -23 -47 -20 -52 3 -5 1 -11 -5 -15 -5 -3 -10 -21 -10 -39 0 -17 -4 -36 -9 -41 -4 -6 -6 -27 -4 -47 l5 -38 642 0 c534 -1 644 -3 659 -15 17 -12 18 -22 12 -77 -4 -35 -8 -72 -9 -83 0 -11 -5 -26 -9 -32 -5 -7 -6 -17 -3 -22 13 -20 -64 -194 -116 -262 -16 -20 -28 -39 -28 -42 0 -10 -130 -137 -140 -137 -5 0 -13 -6 -17 -13 -11 -19 -85 -67 -103 -67 -8 0 -37 -11 -64 -25 -27 -13 -54 -22 -58 -19 -5 3 -14 1 -21 -4 -44 -36 -390 -36 -435 1 -7 5 -15 7 -19 4 -3 -4 -22 2 -42 13 -20 10 -52 26 -71 35 -58 25 -113 61 -128 84 -8 11 -20 21 -26 21 -14 0 -66 52 -66 66 0 5 -15 24 -33 40 -18 17 -43 53 -57 80 -13 27 -29 56 -36 64 -19 23 -65 166 -71 224 -15 119 -5 295 18 351 7 17 13 38 14 47 1 10 7 23 13 30 6 7 20 38 31 69 12 31 30 64 41 74 11 10 20 24 20 32 0 7 5 13 10 13 6 0 14 8 17 18 4 9 17 25 30 35 13 10 23 25 23 33 0 8 6 14 13 14 7 0 23 14 37 30 14 17 28 30 32 30 4 0 19 11 34 25 15 14 35 25 44 25 10 0 23 7 30 15 7 8 21 15 31 15 10 0 20 4 23 9 3 5 22 12 42 16 20 3 44 11 53 16 29 16 113 24 247 23 77 -1 140 -7 153 -13z m1640 0 c12 -7 26 -9 31 -6 5 3 11 1 15 -5 3 -5 15 -10 25 -10 11 0 53 -18 95 -40 156 -82 265 -236 302 -425 15 -78 18 -155 18 -565 l0 -475 -99 -3 c-151 -4 -138 -49 -137 458 0 555 -3 599 -50 658 -10 14 -19 28 -19 32 0 15 -91 98 -120 110 -16 7 -35 18 -41 26 -6 8 -24 14 -40 14 -15 0 -31 5 -34 10 -3 6 -17 7 -30 4 -12 -3 -26 -1 -29 5 -8 13 -112 15 -120 2 -3 -4 -28 -11 -56 -14 -54 -7 -160 -51 -160 -67 0 -6 -4 -10 -10 -10 -12 0 -50 -37 -50 -48 0 -5 -9 -17 -20 -27 -30 -27 -50 -72 -57 -132 -3 -29 -9 -56 -14 -58 -4 -3 -8 -212 -8 -466 -1 -340 -5 -465 -14 -480 -10 -17 -24 -19 -108 -19 -71 0 -100 4 -108 14 -9 11 -11 122 -8 443 5 406 8 488 22 558 3 17 8 47 11 68 4 20 10 40 15 43 5 3 9 15 9 27 0 13 6 31 14 42 7 11 16 32 19 46 4 15 18 37 32 50 13 13 25 29 25 35 0 16 108 114 125 114 7 0 18 6 24 14 6 7 39 23 74 35 34 12 69 25 77 28 8 3 20 7 25 8 6 1 12 3 15 4 3 1 18 4 34 6 15 2 30 5 31 7 9 9 275 -1 294 -11z m6075 -1740 c3 -5 18 -12 32 -15 36 -9 104 -65 104 -86 0 -9 5 -21 11 -27 17 -17 13 -102 -5 -122 -9 -10 -16 -20 -16 -24 0 -12 -50 -60 -77 -75 -33 -17 -132 -24 -150 -10 -7 5 -16 7 -21 4 -5 -3 -17 3 -27 14 -10 11 -24 20 -31 20 -22 0 -50 46 -63 103 -13 53 -13 57 14 112 17 33 37 60 51 65 12 5 25 14 29 19 3 6 17 11 30 11 13 0 27 5 30 10 8 12 82 13 89 1z"/>
 <path d="M5620 3524 c-35 -11 -89 -125 -71 -148 5 -6 12 -22 16 -34 14 -47 44 -65 106 -65 47 0 62 4 83 24 14 13 26 32 26 41 0 9 4 19 9 22 7 5 8 20 2 83 -1 6 -14 26 -29 43 -23 24 -38 31 -78 35 -27 2 -56 2 -64 -1z"/>
 <path d="M6453 3500 c-42 -20 -46 -26 -56 -95 -6 -38 19 -83 64 -113 49 -34 114 -25 149 20 14 18 25 37 25 43 0 5 4 16 9 23 8 13 -19 80 -46 114 -22 27 -96 31 -145 8z"/>
 <path d="M8053 3511 c-24 -11 -43 -25 -43 -31 0 -7 -7 -27 -16 -46 -15 -31 -15 -37 0 -68 9 -19 16 -38 16 -43 0 -5 20 -20 45 -32 62 -31 111 -23 149 25 45 56 39 141 -12 188 -29 26 -92 29 -139 7z"/>
 <path d="M3364 3507 c-47 -25 -64 -54 -64 -109 0 -63 28 -100 87 -118 34 -10 45 -10 69 4 16 8 36 18 44 21 25 10 39 70 27 118 -22 86 -91 121 -163 84z"/>
 <path d="M4615 3518 c-57 -21 -70 -42 -70 -117 0 -60 3 -72 25 -94 32 -32 96 -43 130 -22 14 8 32 17 40 20 23 9 38 49 35 97 -3 66 -13 83 -61 106 -50 24 -56 25 -99 10z"/>
 <path d="M6038 3513 c-9 -2 -27 -20 -39 -39 -30 -49 -24 -132 14 -170 58 -58 158 -31 185 50 13 41 8 90 -11 117 -28 37 -95 56 -149 42z"/>
 <path d="M7214 3355 c27 -62 55 -85 103 -85 33 0 101 32 106 50 3 8 8 22 11 30 5 13 -10 15 -109 15 -73 0 -114 -4 -111 -10z"/>
 <path d="M8509 3522 c-15 -4 -39 -22 -55 -41 -22 -26 -28 -44 -28 -83 -1 -42 3 -53 29 -77 45 -43 72 -53 116 -46 26 5 47 17 65 38 24 29 26 37 21 94 -4 49 -10 69 -29 87 -26 26 -78 38 -119 28z"/>
 <path d="M9800 3354 c0 -4 9 -21 20 -39 23 -36 68 -51 123 -40 39 9 77 42 77 67 0 16 -10 18 -110 18 -60 0 -110 -3 -110 -6z"/>
 <path d="M1020 1904 c0 -11 7 -28 15 -38 8 -11 15 -27 15 -36 0 -9 13 -34 30 -56 16 -21 30 -44 30 -51 0 -7 9 -17 20 -23 11 -6 20 -17 20 -26 0 -8 10 -18 23 -23 12 -5 36 -23 52 -40 17 -17 37 -31 46 -31 9 0 22 -7 29 -15 7 -9 18 -14 24 -12 6 2 27 -3 46 -11 40 -17 286 -27 295 -11 4 5 17 9 30 9 13 0 26 4 30 10 3 5 12 7 19 4 7 -3 19 2 26 11 7 8 18 15 26 15 18 0 84 40 84 51 0 5 5 9 11 9 13 0 59 41 59 53 0 4 17 31 38 60 22 29 42 64 45 80 4 15 10 38 13 52 l6 25 -500 0 c-275 0 -507 3 -516 6 -11 4 -16 0 -16 -12z"/>
 </g>
<g id="layer103" fill="#cee9ea" stroke="none">
 <path d="M0 2225 l0 -2225 6000 0 6000 0 0 2225 0 2225 -6000 0 -6000 0 0 -2225z m5550 1385 l0 -80 40 21 c54 28 142 23 189 -11 39 -27 70 -90 71 -140 0 -49 -38 -120 -79 -147 -47 -32 -138 -32 -193 -1 -69 39 -78 70 -78 268 l0 170 25 0 c25 0 25 -1 25 -80z m1060 61 c19 -10 45 -33 58 -51 20 -30 22 -45 22 -157 0 -141 -9 -168 -67 -208 -31 -20 -50 -25 -101 -25 -35 0 -75 6 -90 14 -118 62 -119 240 -1 301 36 19 120 19 166 0 19 -8 37 -15 38 -15 1 0 0 12 -3 28 -15 87 -154 118 -210 47 -21 -26 -72 -35 -72 -12 0 74 171 126 260 78z m1384 3 c3 -9 6 -42 6 -75 0 -32 2 -59 4 -59 2 0 17 7 32 15 16 8 54 15 85 15 46 0 63 -5 96 -29 103 -75 93 -239 -19 -297 -15 -8 -53 -14 -86 -14 -46 0 -66 5 -100 27 -63 41 -72 73 -72 268 l0 165 24 0 c13 0 27 -7 30 -16z m-4496 -124 c40 -25 42 -25 42 0 0 16 7 20 31 20 l31 0 -3 -112 c-4 -97 -7 -118 -27 -150 -35 -57 -78 -78 -154 -78 -56 0 -71 4 -106 30 -55 40 -82 117 -63 182 25 84 82 127 166 128 33 0 61 -7 83 -20z m439 5 c39 -17 73 -43 73 -56 0 -5 -9 -13 -20 -19 -17 -9 -26 -7 -50 14 -58 48 -136 42 -185 -15 -20 -24 -25 -41 -25 -83 0 -46 4 -56 33 -84 54 -53 118 -55 176 -6 25 21 34 23 51 14 26 -14 25 -22 -2 -47 -39 -35 -64 -43 -136 -43 -79 0 -120 20 -159 79 -40 60 -28 166 23 213 55 49 149 63 221 33z m420 -6 c55 -26 72 -54 43 -69 -17 -9 -27 -6 -57 17 -68 52 -153 32 -197 -48 -48 -89 46 -201 148 -175 14 3 38 17 55 32 25 21 34 23 51 14 11 -6 20 -14 20 -19 0 -10 -40 -46 -67 -60 -31 -16 -149 -14 -181 3 -60 31 -94 88 -94 156 0 71 41 134 102 159 44 17 130 13 177 -10z m394 -2 c82 -55 104 -157 54 -242 -31 -53 -75 -75 -152 -75 -101 0 -166 63 -167 165 -2 105 68 175 175 175 42 0 65 -6 90 -23z m219 -84 c0 -89 3 -114 19 -140 22 -35 50 -48 87 -39 44 11 57 48 62 172 4 110 5 114 27 114 22 0 23 -4 26 -108 3 -83 8 -115 22 -136 40 -61 112 -59 134 4 7 19 12 81 12 138 l1 102 25 0 25 0 0 -122 c0 -97 -4 -130 -18 -158 -32 -65 -137 -78 -200 -26 l-28 24 -23 -24 c-25 -26 -78 -40 -118 -29 -82 20 -113 87 -113 242 l0 93 30 0 30 0 0 -107z m1203 87 l37 -20 0 20 c0 16 7 20 31 20 l31 0 -4 -119 c-3 -102 -6 -124 -24 -148 -39 -52 -81 -73 -149 -73 -101 0 -165 56 -173 153 -5 69 17 119 71 158 50 36 122 40 180 9z m667 -94 c0 -106 2 -117 23 -142 20 -23 32 -27 71 -27 74 0 80 11 84 158 l4 125 30 0 31 0 -5 -130 c-6 -145 -14 -166 -71 -194 -70 -32 -158 -12 -201 47 -18 24 -22 46 -25 153 l-3 124 31 0 31 0 0 -114z m557 103 c31 -11 70 -44 84 -71 7 -13 4 -20 -11 -28 -18 -10 -27 -6 -59 23 -22 19 -52 38 -69 42 -54 11 -116 -34 -128 -93 l-6 -32 147 0 147 0 -7 -37 c-8 -44 -35 -84 -74 -113 -23 -16 -45 -20 -101 -20 -72 0 -73 0 -115 43 -34 34 -45 52 -50 91 -13 83 25 164 89 192 38 16 114 18 153 3z m223 -71 c0 -46 5 -99 10 -119 12 -44 55 -93 75 -85 16 6 40 -29 30 -44 -10 -17 -56 -11 -92 11 -53 33 -76 88 -81 196 -5 108 -1 123 33 123 25 0 25 -1 25 -82z m1007 65 c46 -21 82 -78 89 -139 7 -61 -24 -128 -76 -162 -30 -21 -45 -23 -107 -20 -64 3 -76 7 -103 33 -45 43 -60 77 -60 138 0 62 25 108 79 144 42 28 126 31 178 6z m416 -21 l32 -32 3 -135 4 -135 -26 0 c-26 0 -26 0 -27 88 0 132 -8 162 -49 190 -41 27 -72 23 -110 -14 -23 -23 -25 -32 -28 -144 l-4 -120 -25 0 -25 0 4 136 3 136 39 35 c37 34 40 35 107 31 62 -3 73 -7 102 -36z m181 22 c3 -9 6 -58 6 -109 0 -91 1 -95 31 -130 17 -19 38 -34 46 -33 8 2 22 -7 30 -19 14 -21 13 -23 -12 -29 -45 -11 -108 26 -134 78 -17 37 -21 63 -21 151 0 106 0 107 24 107 13 0 27 -7 30 -16z m366 -84 c0 -107 11 -146 51 -174 12 -8 27 -12 33 -10 7 3 18 -7 24 -20 10 -23 9 -26 -13 -32 -31 -8 -76 10 -104 39 -38 41 -51 91 -51 197 l0 100 30 0 30 0 0 -100z m409 81 c36 -19 71 -58 71 -80 0 -5 -10 -13 -21 -16 -17 -6 -27 0 -46 24 -14 17 -41 36 -63 42 -32 10 -44 9 -76 -7 -39 -19 -82 -84 -69 -104 4 -6 60 -10 146 -10 138 0 139 0 139 -22 -1 -42 -37 -104 -72 -126 -51 -31 -152 -31 -199 1 -43 28 -73 89 -73 148 0 58 40 130 86 152 46 23 130 22 177 -2z m395 4 c57 -27 70 -64 71 -200 l0 -120 -27 -3 -28 -3 0 115 c0 113 -1 116 -28 148 -33 36 -75 42 -116 15 -33 -22 -46 -72 -46 -184 l0 -93 -26 0 -26 0 4 129 c3 140 14 170 69 198 33 17 114 16 153 -2z m301 -1 c13 -9 29 -31 35 -50 18 -53 -1 -87 -71 -130 -45 -27 -59 -41 -59 -58 0 -41 25 -51 69 -31 40 18 61 14 61 -10 0 -44 -122 -63 -160 -25 -26 26 -35 65 -21 98 11 25 28 39 104 86 35 21 36 59 2 82 -23 15 -27 15 -61 -6 -34 -19 -38 -20 -53 -5 -15 15 -14 18 12 41 34 29 104 33 142 8z m250 0 c33 -22 48 -71 34 -112 -8 -22 -28 -42 -69 -67 -67 -41 -76 -56 -51 -87 18 -22 19 -22 59 -4 41 19 62 16 62 -9 0 -44 -122 -63 -160 -25 -52 52 -33 116 49 163 67 39 79 74 37 102 -24 16 -28 16 -62 -5 -34 -19 -38 -20 -53 -5 -15 15 -14 18 12 41 34 29 104 33 142 8z m173 -151 l2 -163 -30 0 -30 0 0 166 0 165 28 -3 27 -3 3 -162z m122 75 c0 -70 5 -104 19 -135 19 -41 53 -69 71 -58 11 7 33 -32 25 -45 -10 -17 -56 -11 -92 11 -53 33 -76 88 -81 196 -5 108 -1 123 33 123 25 0 25 0 25 -92z m-1280 -348 l42 -50 -39 0 c-35 0 -43 5 -71 44 -18 24 -32 47 -32 50 0 3 13 6 29 6 23 0 38 -11 71 -50z m1160 35 c6 -8 9 -23 5 -35 -5 -17 -13 -20 -38 -18 -32 3 -45 23 -33 54 7 18 50 18 66 -1z m-9415 -299 c97 -18 144 -34 238 -83 98 -51 236 -189 296 -296 23 -43 41 -80 40 -81 -2 -2 -48 -26 -101 -55 l-97 -52 -46 72 c-96 148 -216 236 -375 273 -293 69 -569 -98 -645 -390 -8 -32 -15 -75 -15 -96 l0 -38 655 0 c607 0 656 -1 662 -17 12 -32 -15 -217 -45 -300 -38 -109 -83 -182 -167 -272 -151 -160 -341 -241 -571 -241 -340 0 -625 203 -735 523 -160 465 110 969 565 1052 97 18 244 18 341 1z m1646 -2 c215 -41 384 -183 448 -377 46 -141 51 -212 49 -697 l-3 -455 -104 -3 c-67 -2 -108 1 -117 9 -12 9 -14 85 -14 433 0 471 -7 571 -44 651 -72 159 -251 245 -453 218 -182 -24 -313 -142 -345 -312 -6 -32 -14 -259 -17 -526 l-6 -470 -104 -3 c-71 -2 -108 1 -118 10 -13 11 -15 72 -10 483 4 431 6 478 26 564 58 260 222 426 471 476 91 18 242 18 341 -1z m6100 -1745 c46 -14 104 -61 125 -101 20 -38 20 -117 1 -154 -77 -149 -300 -151 -374 -4 -29 56 -29 105 0 160 46 88 148 128 248 99z"/>
 <path d="M5623 3515 c-47 -20 -75 -70 -70 -122 9 -89 85 -141 160 -110 96 41 101 183 8 232 -36 18 -56 18 -98 0z"/>
 <path d="M6474 3511 c-11 -5 -33 -24 -48 -42 -25 -29 -28 -39 -23 -83 3 -40 11 -55 36 -78 55 -49 111 -49 162 1 72 73 30 193 -72 206 -19 3 -43 1 -55 -4z"/>
 <path d="M8065 3516 c-79 -34 -97 -142 -34 -205 57 -57 137 -47 179 22 38 62 15 148 -49 182 -36 18 -56 18 -96 1z"/>
 <path d="M3356 3499 c-79 -62 -68 -172 20 -214 47 -22 86 -12 124 31 21 25 30 45 30 70 0 69 -56 134 -115 134 -18 0 -44 -9 -59 -21z"/>
 <path d="M4610 3512 c-39 -21 -70 -72 -70 -117 0 -68 83 -138 142 -120 34 11 76 54 89 92 17 53 -11 117 -62 143 -47 25 -55 25 -99 2z"/>
 <path d="M6014 3486 c-30 -30 -34 -40 -34 -84 0 -145 183 -178 221 -40 20 77 -40 158 -119 158 -25 0 -43 -9 -68 -34z"/>
 <path d="M7220 3346 c0 -22 68 -76 95 -76 35 0 70 16 94 41 40 43 30 49 -84 49 -83 0 -105 -3 -105 -14z"/>
 <path d="M8504 3516 c-49 -22 -74 -61 -74 -118 0 -43 5 -55 33 -83 43 -43 79 -52 123 -31 97 46 96 191 -1 232 -41 17 -42 17 -81 0z"/>
 <path d="M9800 3349 c0 -18 56 -68 84 -75 14 -3 38 -3 52 0 28 7 84 57 84 75 0 7 -38 11 -110 11 -72 0 -110 -4 -110 -11z"/>
 <path d="M1030 1896 c0 -36 83 -175 136 -229 243 -244 701 -171 849 137 19 40 35 81 35 90 0 15 -43 16 -510 16 -428 0 -510 -2 -510 -14z"/>
 </g>
<g id="layer104" fill="#ffffff" stroke="none">
 <path d="M0 2225 l0 -2225 6000 0 6000 0 0 2225 0 2225 -6000 0 -6000 0 0 -2225z m5558 1394 l3 -76 37 18 c47 24 113 24 160 0 97 -50 126 -181 60 -274 -53 -74 -182 -89 -255 -30 -62 49 -68 69 -71 252 -2 89 -1 170 2 178 4 9 16 13 33 11 28 -3 28 -4 31 -79z m1065 54 c18 -10 42 -38 55 -63 19 -38 22 -60 22 -155 0 -96 -3 -115 -23 -150 -63 -111 -241 -114 -314 -6 -32 48 -32 144 0 192 44 67 146 96 224 64 20 -8 39 -13 42 -10 3 3 -3 21 -13 40 -36 67 -144 73 -195 11 -14 -17 -81 -23 -81 -7 0 4 10 23 23 41 44 66 181 88 260 43z m1375 -54 l3 -76 37 18 c47 25 113 24 162 -1 127 -65 126 -256 -3 -321 -60 -31 -143 -23 -194 18 -62 49 -68 69 -71 252 -2 89 -1 170 2 178 4 9 16 13 33 11 28 -3 28 -4 31 -79z m-4511 -58 c40 -19 41 -19 46 0 4 14 14 19 37 19 l32 0 -4 -123 c-3 -112 -5 -127 -28 -160 -70 -102 -231 -104 -298 -3 -44 65 -42 161 5 216 56 67 133 85 210 51z m460 -5 c56 -27 80 -55 61 -74 -18 -18 -44 -14 -84 13 -46 31 -91 32 -135 2 -88 -59 -74 -174 25 -212 39 -15 45 -15 83 0 23 9 44 23 47 31 7 17 36 18 59 1 16 -11 16 -14 2 -35 -56 -79 -229 -83 -296 -6 -51 58 -63 138 -30 202 49 96 159 128 268 78z m391 9 c42 -18 82 -53 82 -72 0 -26 -46 -25 -85 1 -87 60 -195 6 -195 -97 0 -48 23 -83 72 -108 47 -24 85 -19 128 18 52 43 113 5 63 -39 -77 -67 -204 -65 -281 6 -47 42 -65 129 -41 193 34 91 159 138 257 98z m395 -1 c120 -61 145 -207 50 -296 -77 -73 -209 -62 -273 24 -21 28 -25 44 -25 104 0 58 4 76 25 106 47 69 151 98 223 62z m239 -99 c4 -96 8 -120 25 -143 22 -30 42 -37 79 -28 41 11 54 53 54 176 l0 111 33 -3 32 -3 5 -118 c5 -115 6 -120 33 -143 36 -31 81 -32 101 -2 12 17 16 50 16 146 l0 123 33 -3 32 -3 0 -131 c0 -144 -9 -175 -57 -200 -44 -23 -119 -18 -162 11 -20 13 -36 20 -36 15 0 -35 -127 -52 -179 -25 -52 26 -71 85 -71 218 l0 117 29 0 28 0 5 -115z m1196 95 c42 -19 42 -19 42 1 0 17 6 20 33 17 l32 -3 3 -70 c7 -151 -17 -218 -93 -263 -58 -33 -148 -28 -200 12 -67 51 -91 138 -60 213 21 50 42 72 90 94 51 24 99 23 153 -1z m674 -102 c5 -117 6 -123 32 -145 29 -24 74 -30 106 -13 28 15 40 71 40 183 l0 97 30 0 30 0 0 -132 c0 -115 -3 -137 -19 -162 -28 -42 -58 -55 -127 -56 -47 0 -69 5 -95 23 -52 35 -59 57 -59 200 l0 127 29 0 28 0 5 -122z m564 103 c40 -18 84 -63 84 -85 0 -6 -10 -17 -22 -25 -20 -12 -24 -11 -49 17 -34 38 -60 52 -98 52 -36 0 -85 -39 -100 -80 l-10 -30 144 0 c79 0 146 -4 150 -9 3 -5 -3 -33 -12 -62 -14 -41 -28 -61 -61 -86 -38 -29 -51 -33 -104 -33 -71 0 -115 23 -153 78 -36 53 -36 152 1 206 48 70 147 95 230 57z m224 -96 c6 -122 22 -162 70 -171 28 -6 55 -38 45 -54 -9 -14 -69 -12 -99 4 -29 15 -56 47 -74 89 -13 30 -17 229 -5 241 4 4 19 6 33 4 25 -3 25 -4 30 -113z m994 95 c23 -12 52 -35 66 -53 22 -27 25 -41 25 -107 0 -63 -4 -80 -23 -108 -77 -107 -251 -92 -312 28 -35 68 -19 162 37 212 54 49 142 61 207 28z m382 4 c66 -31 79 -63 83 -206 l3 -128 -36 0 -36 0 0 108 c0 116 -10 148 -51 171 -31 17 -71 9 -99 -21 -18 -19 -20 -35 -20 -140 l0 -118 -36 0 -36 0 3 129 c4 112 7 133 25 158 43 59 131 79 200 47z m225 -100 c6 -124 22 -160 72 -171 29 -6 52 -36 42 -53 -12 -20 -77 -11 -113 16 -54 42 -72 92 -72 210 0 55 3 104 7 108 4 4 19 6 33 4 25 -3 25 -4 31 -114z m361 6 c4 -90 8 -116 24 -137 11 -15 27 -29 35 -33 44 -21 54 -29 54 -46 0 -13 -8 -20 -29 -22 -43 -5 -85 17 -117 61 -28 39 -29 43 -29 164 l0 123 29 0 28 0 5 -110z m407 88 c23 -13 51 -37 62 -55 l20 -32 -27 -17 c-26 -18 -27 -17 -46 9 -25 34 -68 57 -107 57 -35 0 -101 -59 -101 -90 0 -19 7 -20 146 -20 l147 0 -7 -42 c-25 -158 -237 -205 -326 -72 -20 31 -25 50 -25 104 0 54 5 73 25 103 50 74 157 98 239 55z m399 2 c61 -37 72 -70 72 -207 l0 -123 -35 0 -35 0 0 114 c0 63 -3 122 -6 131 -8 19 -55 45 -84 45 -12 0 -35 -13 -51 -29 -29 -29 -29 -31 -29 -145 l0 -116 -35 0 -35 0 0 101 c0 110 13 180 39 203 54 49 142 60 199 26z m292 3 c46 -27 63 -84 39 -136 -6 -13 -35 -38 -65 -56 -64 -38 -73 -54 -49 -81 16 -18 20 -18 46 -5 26 14 69 20 69 11 0 -2 3 -11 6 -20 8 -21 -51 -56 -94 -56 -42 0 -89 27 -96 54 -17 64 7 112 75 146 50 26 63 50 43 78 -18 25 -41 28 -68 7 -25 -19 -50 -19 -66 0 -16 19 1 42 45 61 41 18 82 17 115 -3z m250 0 c49 -28 65 -97 34 -141 -8 -12 -40 -38 -70 -57 -57 -37 -65 -52 -36 -78 15 -13 20 -14 42 -2 23 13 70 20 70 11 0 -2 3 -11 6 -20 9 -22 -52 -56 -101 -56 -52 1 -84 26 -92 73 -9 55 11 89 70 123 44 25 52 34 52 58 0 43 -27 55 -71 31 -27 -14 -40 -16 -52 -8 -26 16 -20 35 17 60 40 27 92 30 131 6z m178 -155 l-3 -173 -30 0 -30 0 -3 160 c-1 87 0 165 2 172 3 7 19 13 36 13 l30 0 -2 -172z m132 57 c6 -122 22 -162 70 -171 28 -6 55 -38 45 -54 -8 -14 -71 -13 -98 1 -28 15 -54 45 -72 88 -16 35 -22 231 -8 245 4 4 19 6 33 4 25 -3 25 -4 30 -113z m-139 -285 c12 -7 19 -21 19 -40 0 -54 -81 -53 -88 0 -3 15 3 29 14 37 22 16 30 16 55 3z m-1148 -48 c26 -27 44 -51 41 -55 -4 -4 -24 -7 -45 -7 -33 0 -41 5 -73 50 -20 28 -36 52 -36 55 0 3 15 5 33 5 26 0 43 -10 80 -48z m-8280 -257 c203 -31 371 -128 492 -285 55 -72 108 -167 102 -183 -4 -12 -177 -107 -193 -107 -5 0 -31 35 -59 76 -67 101 -149 176 -238 217 -228 106 -461 73 -622 -88 -87 -87 -140 -198 -159 -332 l-6 -43 648 0 c620 0 650 -1 666 -19 15 -16 15 -29 6 -112 -14 -120 -34 -196 -77 -284 -46 -93 -89 -149 -171 -226 -124 -116 -257 -176 -438 -199 -343 -43 -655 125 -803 433 -61 126 -81 218 -81 367 0 196 48 346 160 492 128 170 279 261 485 293 110 17 173 17 288 0z m1614 5 c99 -14 161 -33 243 -77 117 -62 219 -183 265 -313 44 -125 48 -176 52 -670 4 -444 3 -475 -13 -487 -12 -9 -51 -13 -114 -13 -80 0 -100 3 -113 18 -14 15 -16 78 -19 512 l-4 495 -24 59 c-33 81 -106 158 -187 197 -111 53 -292 52 -407 -2 -115 -53 -187 -159 -206 -302 -5 -44 -10 -267 -10 -509 0 -387 -2 -433 -17 -450 -13 -15 -32 -18 -113 -18 -72 0 -101 4 -109 14 -9 11 -11 139 -9 503 4 550 7 571 79 721 85 177 235 282 449 316 107 18 159 19 257 6z m7953 -435 c0 -491 -4 -533 -62 -672 -69 -168 -217 -323 -382 -403 -119 -57 -219 -80 -352 -80 -226 0 -407 74 -560 229 -168 171 -243 367 -231 610 8 163 49 289 137 415 201 292 552 406 891 291 97 -33 170 -77 245 -147 l64 -60 0 119 c0 79 4 123 12 131 8 8 50 12 125 12 l113 0 0 -445z m-6169 416 c161 -36 289 -105 405 -220 70 -69 118 -153 166 -292 l33 -94 0 -745 0 -745 -104 -3 c-67 -2 -108 1 -117 9 -12 9 -14 78 -14 387 l0 375 -52 -49 c-256 -240 -667 -261 -961 -50 -155 110 -273 286 -313 468 -24 106 -22 291 4 389 76 285 313 513 596 574 92 20 256 18 357 -4z m1751 4 c167 -35 292 -106 409 -233 103 -112 165 -230 196 -375 19 -94 13 -317 -12 -397 -82 -263 -300 -479 -550 -546 -149 -39 -376 -27 -515 29 -186 76 -353 241 -432 428 -60 144 -78 348 -43 499 69 297 304 532 595 594 88 19 262 20 352 1z m1066 3 c9 -9 12 -109 12 -387 0 -410 15 -630 49 -705 24 -55 98 -121 174 -156 92 -43 186 -56 305 -41 129 15 208 52 251 118 65 97 65 98 71 653 3 278 9 511 13 518 6 8 39 12 106 12 85 0 100 -3 116 -20 17 -18 17 -47 12 -482 -6 -468 -12 -558 -48 -679 -55 -190 -230 -330 -456 -367 -191 -31 -427 14 -559 107 -169 118 -230 230 -269 488 -11 79 -15 196 -15 510 0 364 2 408 17 425 13 15 32 18 113 18 61 0 100 -4 108 -12z m1564 -5 c17 -15 18 -51 18 -741 0 -661 -1 -727 -17 -744 -13 -15 -32 -18 -113 -18 -61 0 -100 4 -108 12 -17 17 -17 1479 0 1496 8 8 46 12 107 12 74 0 98 -4 113 -17z m18 -1750 c132 -54 160 -219 53 -313 -112 -98 -292 -61 -348 72 -47 113 29 231 170 261 27 6 83 -3 125 -20z"/>
 <path d="M5632 3513 c-49 -24 -72 -59 -72 -110 0 -50 21 -88 61 -109 54 -27 115 -8 149 49 25 41 25 73 0 114 -35 59 -89 80 -138 56z"/>
 <path d="M6459 3496 c-28 -16 -59 -71 -59 -104 0 -31 42 -86 82 -105 32 -16 40 -16 70 -4 49 21 70 51 76 105 4 43 1 53 -25 82 -34 38 -101 50 -144 26z"/>
 <path d="M8065 3507 c-45 -25 -65 -57 -65 -105 0 -95 98 -153 171 -101 58 41 73 101 39 156 -38 63 -90 81 -145 50z"/>
 <path d="M3366 3501 c-55 -36 -71 -102 -41 -161 17 -32 61 -60 95 -60 51 0 110 61 110 115 0 45 -72 125 -113 125 -12 0 -35 -9 -51 -19z"/>
 <path d="M4604 3501 c-18 -11 -38 -36 -48 -61 -16 -39 -15 -43 3 -85 40 -90 138 -100 192 -19 48 73 -6 183 -91 184 -14 0 -39 -9 -56 -19z"/>
 <path d="M6036 3498 c-65 -49 -69 -135 -10 -188 46 -40 92 -40 134 -2 60 52 48 149 -23 192 -41 25 -65 25 -101 -2z"/>
 <path d="M7232 3334 c7 -14 29 -34 50 -45 35 -18 41 -18 74 -4 33 14 73 50 74 68 0 4 -47 7 -105 7 l-105 0 12 -26z"/>
 <path d="M8495 3509 c-81 -41 -79 -180 3 -218 59 -28 132 9 153 77 27 91 -73 182 -156 141z"/>
 <path d="M9810 3352 c0 -19 35 -55 66 -68 29 -12 39 -12 68 0 31 13 66 49 66 68 0 5 -45 8 -100 8 -55 0 -100 -3 -100 -8z"/>
 <path d="M1045 1869 c57 -161 199 -292 355 -328 58 -13 192 -14 260 -1 86 16 194 74 258 138 52 52 107 143 127 210 l6 22 -510 0 -510 0 14 -41z"/>
 <path d="M10293 2630 c-60 -14 -174 -90 -244 -164 -149 -156 -186 -435 -83 -637 61 -121 202 -242 327 -281 88 -27 238 -26 322 2 118 39 237 136 300 244 55 96 74 342 33 439 -40 96 -102 190 -168 257 -72 73 -137 112 -225 135 -61 16 -206 19 -262 5z"/>
 <path d="M4800 2640 c-72 -13 -127 -37 -201 -85 -83 -56 -135 -114 -182 -203 -51 -97 -67 -162 -67 -268 0 -279 195 -516 464 -564 230 -42 487 84 591 290 42 83 58 157 57 270 -1 178 -51 298 -175 417 -128 124 -305 175 -487 143z"/>
 <path d="M6532 2639 c-77 -15 -188 -76 -251 -137 -217 -214 -227 -567 -22 -793 113 -125 233 -179 401 -179 120 0 202 23 289 81 248 165 329 476 195 747 -69 141 -215 254 -364 282 -62 12 -187 11 -248 -1z"/>
 </g>

</svg>